<svg width="25" height="25" viewBox="0 0 25 25" fill="none" xmlns="http://www.w3.org/2000/svg">
<path d="M17.0473 6.68262C15.0786 6.68262 14.2465 7.62207 12.8754 7.62207C11.4697 7.62207 10.3974 6.68945 8.69135 6.68945C7.02143 6.68945 5.24067 7.70898 4.10981 9.4458C2.52192 11.895 2.79145 16.5078 5.36323 20.4375C6.28315 21.8442 7.51167 23.4219 9.12299 23.439H9.15229C10.5527 23.439 10.9687 22.522 12.8959 22.5112H12.9252C14.8237 22.5112 15.2045 23.4336 16.5991 23.4336H16.6284C18.2397 23.4165 19.5341 21.6685 20.454 20.2671C21.1162 19.2593 21.3623 18.7534 21.8701 17.6133C18.1498 16.2012 17.5522 10.9272 21.2314 8.90527C20.1083 7.49902 18.5302 6.68457 17.0424 6.68457L17.0473 6.68262Z" fill="white"/>
<path d="M16.6137 1.5625C15.4418 1.64209 14.0746 2.38818 13.2738 3.3623C12.5473 4.24512 11.9496 5.55469 12.184 6.82471H12.2778C13.5258 6.82471 14.8031 6.07324 15.5492 5.11035C16.268 4.19385 16.8129 2.89502 16.6137 1.5625Z" fill="white"/>
</svg>
