<svg width="25" height="25" viewBox="0 0 25 25" fill="none" xmlns="http://www.w3.org/2000/svg">
<path d="M2.34375 2.90469V22.0941C2.34388 22.1358 2.3563 22.1764 2.37944 22.211C2.40259 22.2456 2.43544 22.2726 2.47388 22.2887C2.51231 22.3047 2.55461 22.309 2.59548 22.301C2.63635 22.2931 2.67397 22.2733 2.70361 22.244L12.6953 12.4999L2.70361 2.75478C2.67397 2.72555 2.63635 2.70573 2.59548 2.69779C2.55461 2.68985 2.51231 2.69416 2.47388 2.71017C2.43544 2.72618 2.40259 2.75318 2.37944 2.78778C2.3563 2.82239 2.34388 2.86305 2.34375 2.90469ZM16.8848 8.49599L4.35645 1.59365L4.34863 1.58926C4.13281 1.47207 3.92773 1.76406 4.10449 1.93398L13.9253 11.3246L16.8848 8.49599ZM4.10547 23.0658C3.92773 23.2357 4.13281 23.5277 4.34961 23.4105L4.35742 23.4061L16.8848 16.5038L13.9253 13.6742L4.10547 23.0658ZM21.9424 11.2792L18.4438 9.35244L15.1543 12.4999L18.4438 15.6459L21.9424 13.7206C22.894 13.1947 22.894 11.8051 21.9424 11.2792Z" fill="white"/>
</svg>
